<svg width="1019" height="1161" fill="none" xmlns="http://www.w3.org/2000/svg"><path opacity=".5" d="M318.635 86.694C198.697 187.217 180.111 377.298 98.881 517.527c-28.277 48.795-64.814 92.465-83.877 146.596-43.766 123.903 16.468 264.449 97.089 362.857 38.443 46.95 83.347 89.96 137.677 109.74 41.78 15.22 86.578 15.85 130.555 16.25l770.465 7.93c86.02.87 181.6-2.28 243.45-68.69 42.63-45.73 59.94-112.518 74.64-176.266 18.05-78.331 34.42-163.398 6.32-238.004-32.09-85.358-113.24-133.73-163.65-207.385-81.81-119.332-79.93-299.824-184.11-395.089-48.64-44.462-112.82-61.898-175.357-70.616-117.899-16.46-229.577 14.61-345.358 10.277-98.969-3.699-205.986 2.747-288.09 71.567z" fill="#E7ECFF"/><path opacity=".24" d="M560.078 982.613c-46.449 4.67-94.323 9.806-135.197 32.647-5.471 3.07-11.025 6.68-14.044 12.2-6.057 11.09.818 25.72 11.487 32.4 10.669 6.67 23.832 7.43 36.388 7.98 223.567 9.75 447.469 5.92 671.228 2.12 64.98-1.1 130.98-2.37 193.25-21.24 11.2-3.38 23.5-8.46 27.71-19.51 5.52-14.45-7.06-30.473-21.73-34.974-14.67-4.501-30.33-1.141-45.51.824-52.69 6.83-105.85-3.614-158.31-11.961-102.71-16.315-209.275-29.587-313.303-32.06-35.466-.824-65.754 11.476-100.465 16.337-50.117 7.058-101.115 10.165-151.504 15.237z" fill="#505F98"/><path d="M377.369 549.326l115.829-235.918 68.987 33.782-115.83 235.918-68.986-33.782z" fill="#fff"/><path d="M404.214 542.055l14.113-28.835 46.465 22.683-14.114 28.835-46.464-22.683z" fill="#505F98"/><path d="M404.214 542.055l14.113-28.835 46.465 22.683-14.114 28.835-46.464-22.683z" fill="url(#paint0_linear)"/><path d="M418.329 513.445l14.114-28.835 46.464 22.683-14.113 28.835-46.465-22.683z" fill="#505F98"/><path d="M418.329 513.445l14.114-28.835 46.464 22.683-14.113 28.835-46.465-22.683z" fill="url(#paint1_linear)"/><path d="M432.426 484.826l14.114-28.835 46.464 22.683-14.114 28.835-46.464-22.683z" fill="#505F98"/><path d="M432.426 484.826l14.114-28.835 46.464 22.683-14.114 28.835-46.464-22.683z" fill="url(#paint2_linear)"/><path d="M446.563 456.237l14.113-28.835 46.464 22.683-14.113 28.835-46.464-22.683z" fill="#505F98"/><path d="M446.563 456.237l14.113-28.835 46.464 22.683-14.113 28.835-46.464-22.683z" fill="url(#paint3_linear)"/><path d="M460.668 427.599l14.114-28.835 46.464 22.683-14.113 28.835-46.465-22.683z" fill="#505F98"/><path d="M474.784 399.01l14.113-28.835 46.465 22.683-14.114 28.835-46.464-22.683z" fill="#505F98"/><path d="M488.881 370.391l14.113-28.835 46.464 22.683-14.113 28.835-46.464-22.683z" fill="#505F98"/><path d="M473.196 402.598l14.113-28.835 46.465 22.683-14.114 28.835-46.464-22.683z" fill="url(#paint4_linear)"/><path d="M487.321 373.97l14.113-28.835 46.464 22.682-14.113 28.835-46.464-22.682z" fill="url(#paint5_linear)"/><path fill="#505F98" d="M787.837 867h98.068v82h-98.068z"/><path fill="url(#paint6_linear)" d="M787.837 867h98.068v82h-98.068z"/><rect x="579.693" y="525" width="518.359" height="355" rx="9.37" fill="#505F98"/><path opacity=".65" d="M1081.04 554.438v294.124A18.371 18.371 0 011062.7 867H611.039a18.367 18.367 0 01-12.983-5.418 18.403 18.403 0 01-5.354-13.02V554.438a18.403 18.403 0 015.354-13.02A18.367 18.367 0 01611.039 536H1062.7a18.371 18.371 0 0118.34 18.438z" fill="url(#paint7_linear)"/><path fill="#505F98" d="M742.806 939h206.143v21H742.806z"/><path fill="url(#paint8_linear)" d="M787.837 927h98.068v12h-98.068z"/><path fill-rule="evenodd" clip-rule="evenodd" d="M942.945 353.241v20.474l-12.71.104a57.144 57.144 0 01-10.538 26.362l10.855 11.17-14.88 14.249-10.686-11.022a59.2 59.2 0 01-21.856 9.136V437h-20.571v-12.971a58.032 58.032 0 01-24.47-9.535l-8.936 8.822-14.564-14.669 8.873-8.654a57.66 57.66 0 01-10.37-26.278h-14.247v-20.474h14.753a57.181 57.181 0 0110.539-22.422l-8.241-8.487 14.88-14.25 8.43 8.738a55.948 55.948 0 0123.184-8.738V294h20.571v14.396a59.341 59.341 0 0123.184 10.08l10.538-10.31 14.48 14.543-10.538 10.478a57.775 57.775 0 018.641 20.054h13.679zM836.804 366.15c-.024 19.061 15.499 34.532 34.67 34.555a34.75 34.75 0 0024.577-10.061 34.35 34.35 0 0010.178-24.411c.024-19.061-15.499-34.532-34.67-34.555-19.172-.023-34.732 15.41-34.755 34.472z" fill="#505F98"/><path fill-rule="evenodd" clip-rule="evenodd" d="M1019 387.354l-.92 12.042-7.51-.458a33.607 33.607 0 01-7.29 15.02l5.87 7.063-9.352 7.708-5.759-6.937a34.776 34.776 0 01-13.189 4.396l-.605 7.812-12.041-.896.584-7.625a33.981 33.981 0 01-13.898-6.687l-5.634 4.791-7.868-9.187 5.572-4.708a33.945 33.945 0 01-4.904-15.896l-8.118-.625.898-12.021 8.618.646a34.034 34.034 0 017.116-12.73l-4.445-5.354 9.349-7.708 4.529 5.5a33.018 33.018 0 0113.919-4.167l.626-8.333 12.041.896-.647 8.479a34.41 34.41 0 0113.063 6.937l6.615-5.604 7.85 9.188-6.68 5.687a33.452 33.452 0 014.17 12.188l8.04.583zm-62.7 2.889c-.855 11.193 7.537 20.96 18.749 21.819a20.347 20.347 0 0014.84-4.834 20.285 20.285 0 007.03-13.916c.842-11.193-7.561-20.951-18.773-21.798-11.212-.848-20.991 7.536-21.846 18.729z" fill="#505F98"/><path d="M1081.04 554.513V561H592.702v-6.487a18.518 18.518 0 015.354-13.073 18.335 18.335 0 0112.985-5.44H1062.7c4.88.006 9.55 1.961 12.99 5.434a18.486 18.486 0 015.35 13.079z" fill="url(#paint9_linear)"/><path fill="url(#paint10_linear)" d="M602.709 593h47.033v227h-47.033z"/><path fill="url(#paint11_linear)" d="M720.791 609h221.153v209H720.791z"/><path fill="url(#paint12_linear)" d="M771.826 707h7.005v9h-7.005z"/><path fill="url(#paint13_linear)" d="M771.826 665h7.005v9h-7.005z"/><path fill="url(#paint14_linear)" d="M676.76 707h7.005v9h-7.005z"/><path fill="url(#paint15_linear)" d="M676.76 665h7.005v9h-7.005z"/><path fill="url(#paint16_linear)" d="M771.826 620h7.005v9h-7.005z"/><path fill="url(#paint17_linear)" d="M677.761 620h7.005v9h-7.005z"/><path fill="url(#paint18_linear)" d="M725.794 620h7.005v9h-7.005z"/><path fill="url(#paint19_linear)" d="M725.794 707h7.005v9h-7.005z"/><path fill-rule="evenodd" clip-rule="evenodd" d="M689.769 705h78.054v-73h-78.054v73zm70.192-7.718h-62.33v-57.626h62.33v57.626z" fill="#505F98"/><path fill-rule="evenodd" clip-rule="evenodd" d="M689.769 705h78.054v-73h-78.054v73zm70.192-7.718h-62.33v-57.626h62.33v57.626z" fill="url(#paint20_linear)"/><path fill="url(#paint21_linear)" d="M973.966 573h100.069v100H973.966z"/><path fill="url(#paint22_linear)" d="M973.966 683h100.069v100H973.966z"/><path opacity=".65" fill="url(#paint23_linear)" d="M602.709 592h47.033v13h-47.033z"/><path d="M399.673 523.827l205.128-164.534 48.113 59.825-205.129 164.534-48.112-59.825z" fill="#fff"/><path d="M428.396 528.455l25.068-20.22 32.582 40.287-25.067 20.22-32.583-40.287z" fill="#505F98"/><path d="M428.396 528.455l25.068-20.22 32.582 40.287-25.067 20.22-32.583-40.287z" fill="url(#paint24_linear)"/><path d="M452.014 508.689l25.032-20.129 32.435 40.23-25.032 20.129-32.435-40.23z" fill="#505F98"/><path d="M452.014 508.689l25.032-20.129 32.435 40.23-25.032 20.129-32.435-40.23z" fill="url(#paint25_linear)"/><path d="M476.958 488.761l25.032-20.128 32.435 40.23-25.032 20.128-32.435-40.23z" fill="#505F98"/><path d="M476.958 488.761l25.032-20.128 32.435 40.23-25.032 20.128-32.435-40.23z" fill="url(#paint26_linear)"/><path d="M501.886 468.847l25.032-20.129 32.435 40.23-25.032 20.129-32.435-40.23z" fill="#505F98"/><path d="M501.886 468.847l25.032-20.129 32.435 40.23-25.032 20.129-32.435-40.23z" fill="url(#paint27_linear)"/><path d="M528.006 448.389l25.067-20.22 32.583 40.287-25.068 20.22-32.582-40.287zm25.08-20.399l25.067-20.22 32.583 40.287-25.068 20.22-32.582-40.287z" fill="#505F98"/><path d="M576.693 409.051l25.033-20.128 32.435 40.23-25.033 20.129-32.435-40.231z" fill="#505F98"/><path d="M606.712 452.218L585.613 469l-31.938-40.218L574.774 412l31.938 40.218z" fill="url(#paint28_linear)"/><path d="M573.736 411.648l25.032-20.129 32.435 40.23-25.032 20.129-32.435-40.23z" fill="url(#paint29_linear)"/><path d="M522.653 533.15V656h-21.014V533.15c0-4.54 2.818-8.58 7.018-10.061v-12.264c0-2.113 1.676-3.825 3.743-3.825 2.068 0 3.744 1.712 3.744 3.825v12.472c3.919 1.638 6.488 5.526 6.509 9.853z" fill="#505F98"/><path d="M522.653 533.15V656h-21.014V533.15c0-4.54 2.818-8.58 7.018-10.061v-12.264c0-2.113 1.676-3.825 3.743-3.825 2.068 0 3.744 1.712 3.744 3.825v12.472c3.919 1.638 6.488 5.526 6.509 9.853z" fill="url(#paint30_linear)"/><rect x="488.63" y="611" width="50.035" height="9" rx="2.245" fill="#505F98"/><path d="M513.336 693c-8.573 0-15.7-12.815-15.7-21.366V615h31.022v56.634c0 8.551-6.771 21.366-15.322 21.366z" fill="#505F98"/><rect x="488.63" y="611" width="50.035" height="9" rx="2.245" fill="url(#paint31_linear)"/><path d="M513.336 693c-8.573 0-15.7-12.634-15.7-21.063V620h31.022v51.937c0 8.429-6.771 21.063-15.322 21.063z" fill="url(#paint32_linear)"/><path d="M713.428 753c-.674-3.564-1.099-8.61.195-8.957 2.728-.768-.195 8.957-.195 8.957z" fill="#28353D"/><path d="M856.687 948.507c-.486 12.595-10.249 58.883-10.566 71.493 0 4.2 1.12 10.65-.232 14.7-2.789 8.58-12.678 7.41-13.967 2.35l-.486-2.52c-4.586-24.52 2.789-52.332 0-84.344-1.67-19.543-9.446-57.223-14.538-57.475-2.684 0-63.941 129.139-69.266 137.099-2.621 4.01-9.995 3.38-13.566 6.61-3.571 3.23 29.752-97.905 43.719-151.35a169.14 169.14 0 006.339-33.818c.381-6.612-1.754-8.837 4.353-10.789 4.226-1.344 10.079-.966 14.601-1.281 4.924-.378 50.714-.462 50.714 2.771-.444 17.549 4.078 77.459 2.895 106.554z" fill="#606161"/><path d="M856.687 948.507c-.486 12.595-10.249 58.883-10.566 71.493 0 4.2 1.12 10.65-.232 14.7-2.789 8.58-12.678 7.41-13.967 2.35l-.486-2.52c-4.586-24.52 2.789-52.332 0-84.344-1.67-19.543-9.446-57.223-14.538-57.475-2.684 0-63.941 129.139-69.266 137.099-2.621 4.01-9.995 3.38-13.566 6.61-3.571 3.23 29.752-97.905 43.719-151.35a169.14 169.14 0 006.339-33.818c.381-6.612-1.754-8.837 4.353-10.789 4.226-1.344 10.079-.966 14.601-1.281 4.924-.378 50.714-.462 50.714 2.771-.444 17.549 4.078 77.459 2.895 106.554z" fill="url(#paint33_linear)"/><path d="M802.614 680.148c-.385-3.985-2.268-6.148-4.108-6.148-1.84 0-2.973 2.12-2.588 6.148.087 2.974 2.331 5.449 5.305 5.852 1.861 0 1.797-1.866 1.391-5.852zm32.394.011c.25-3.993 2.086-6.159 3.986-6.159 1.899 0 3.13 2.124 2.838 6.159-.027 3.014-2.272 5.528-5.217 5.841-1.879 0-1.9-1.848-1.607-5.841z" fill="#FFCD9C"/><path d="M838.732 697.672c-.259 2.105-9.174 11.328-19.319 11.328-10.146 0-18.521-8.423-20.291-11.792-1.77-3.369 5.353-46.703 9.476-50.324 4.123-3.622 20.831-1.243 22.234.674 3.367 4.527 9.001 41.712 7.9 50.114z" fill="#F4AD7D"/><path d="M834.538 664.977c-1.379.662-6.795-13.135-7.931-15.452-1.135-2.317-.953-4.696.426-5.358 1.38-.662 3.408.704 4.544 3 1.136 2.296 4.32 17.169 2.961 17.81zm-30.37-.99c-1.431-.486 2.357-14.808 3.183-17.284.826-2.475 2.68-4.104 4.03-3.617 1.35.487 1.914 2.898 1.088 5.395-.826 2.496-6.951 15.993-8.301 15.506z" fill="#FFCD9C"/><path d="M809.845 696h21.763l3.262 20.622c-11.856 6.383-18.769 5.679-28.02-1.408L809.845 696z" fill="#F4AD7D"/><path d="M818.859 700.13c0-.38.905-.7 2.001-.7 1.096 0 2.001.32 2.001.7 0 .38-.881.44-2.001.44-1.12 0-2.001-.04-2.001-.44z" fill="#F4AD7D"/><path d="M839.892 690.808c.824-4.914 2.168-40.1-1.128-44.757-3.295-4.657-23.023-7.67-26.015-6.943-6.699 1.623-5.528 6.409-5.528 6.409-1.991.03-3.941.567-5.658 1.559-2.299 1.539-7.133 23.714-3.274 40.484 1.734 7.542 8.563 14.1 20.357 14.421 14.525.384 20.249-5.085 21.246-11.173z" fill="#606161"/><path d="M812.831 640.762a7.47 7.47 0 015.599-1.721 48.524 48.524 0 0117.935 3.335 22.165 22.165 0 018.42 5.332 11.027 11.027 0 012.968 9.326c-1.053 5.013-6.315 8.114-8.041 12.936-1.39 3.867-.4 7.605-.358 11.493a58.54 58.54 0 01-.674 9.389c-.968 6.054-6.504 11.492-20.713 11.131-11.451-.319-18.082-6.84-19.766-14.339a82.954 82.954 0 011.747-37.429 81.945 81.945 0 0018.819 2.124 80.43 80.43 0 0019.934-2.337c1.116 6.501 1.095 19.522.737 29.251" fill="#606161"/><path d="M777.702 712.954a20.644 20.644 0 00-9.625 3.326c-4.938 3.891-5.313 11.15-5.23 17.468a148.257 148.257 0 001.813 26.149c1.479 7.929 4.167 15.544 6.375 23.305a151.496 151.496 0 015.438 38.764c0 7.196-.125 15.104 4.354 20.731 4.896 6.109 13.563 7.301 21.355 7.741 11.063.648 22.167.732 33.23.271 7.417-.334 15.313-1.066 21.188-5.627 4.688-3.64 15.667-126.794 7.146-129.911-8.521-3.117-17.688-3.912-26.73-4.665-20.271-1.715-39.355-3.075-59.314 2.448z" fill="#505F98"/><path d="M841.521 968.291c-1.086 13.964-3.678 64.709-3.678 64.709l-6.605-.23c-4.536-24.38 2.759-52.038 0-83.871-1.652-19.434-9.343-56.903-14.381-57.153 1.505-12.525 9.97-10.646 9.97-10.646a182.977 182.977 0 0115.865 29.078c5.037 13.192-.063 44.085-1.171 58.113z" fill="url(#paint34_linear)"/><path d="M717.164 1034.02a6.569 6.569 0 00-2.252 3.01 4.62 4.62 0 00.271 2.94 8.565 8.565 0 005.985 4.58c2.576.49 5.215.58 7.819.27l8.341-.56c2.122-.05 4.227-.39 6.255-1a7.672 7.672 0 004.629-3.95c.492-1.39.683-2.87.563-4.34 0-6.81-2.418-12.34-9.967-10.67a50.08 50.08 0 00-21.644 9.72zm138.539 3.04a5.98 5.98 0 012.067 2.74c.214.88.13 1.81-.24 2.65-1.063 2.13-3.092 3.66-5.483 4.13-2.357.46-4.774.54-7.159.25l-7.572-.5a21.833 21.833 0 01-5.68-.9c-1.857-.57-3.386-1.86-4.221-3.58a9.473 9.473 0 01-.522-3.92c0-6.14 2.176-11.21 9.117-9.64a45.876 45.876 0 0119.693 8.77zM864.891 715s32.715 19.163 42.541 43.389c9.825 24.225-32.18 82.611-32.18 82.611l-8.989-9.186s21.925-44.055 18.536-55.074c-3.39-11.019-16.669-21.288-16.669-21.288L864.891 715zm-93.065 37.859s-45.488 20.381-63.973 10.379c-18.485-10.001.545-60.238.545-60.238l12.379 4.202s-10.344 25.613 1.49 29.416c11.834 3.803 47.293-21.18 47.293-21.18l2.266 37.421z" fill="#505F98"/><path d="M857.466 839.976a9.156 9.156 0 00-3.085 3.321 7.567 7.567 0 00-.453 3.522c-.079 2.89 1.235 5.66 3.581 7.548a12.823 12.823 0 005.394 1.49c1.163.191 2.353.191 3.516 0 1.187-.211 2.178-.969 2.632-2.013a7.54 7.54 0 00.194-2.013c.151-3.321 2.654-6.038 4.725-8.755.5-.525.823-1.176.927-1.872a3.303 3.303 0 00-.819-2.113c-1.403-1.892-4.876-5.374-7.659-5.073-2.783.302-6.795 4.308-8.953 5.958zM728.585 695.435a6.945 6.945 0 001.187-2.737c.151-1.015-.386-2.011-1.341-2.487-1.516-.564-3.317.919-4.811.293a3.29 3.29 0 01-1.231-1.129 15.29 15.29 0 01-2.922-8.232 15.936 15.936 0 00-.439-4.68c-.445-1.577-2.028-2.614-3.736-2.445-1.406.313-2.197 1.671-3.076 2.758-.878 1.087-2.636 2.382-3.779 3.74a17.881 17.881 0 00-3.229 9.382c-.616 4.179-1.011 8.963 2.065 11.972 2.373 2.319 9.601 5.057 12.919 3.824 3.669-1.379 6.548-7.25 8.393-10.259z" fill="#F4AD7D"/><defs><linearGradient id="paint0_linear" x1="528.402" y1="609.166" x2="593.156" y2="480.6" gradientUnits="userSpaceOnUse"><stop stop-color="#010101" stop-opacity=".01"/><stop offset=".95" stop-color="#010101"/></linearGradient><linearGradient id="paint1_linear" x1="583.563" y1="605.365" x2="676.417" y2="423.775" gradientUnits="userSpaceOnUse"><stop stop-color="#010101" stop-opacity=".01"/><stop offset=".95" stop-color="#010101"/></linearGradient><linearGradient id="paint2_linear" x1="703.545" y1="614.092" x2="840.899" y2="303.948" gradientUnits="userSpaceOnUse"><stop stop-color="#010101" stop-opacity=".01"/><stop offset=".95" stop-color="#010101"/></linearGradient><linearGradient id="paint3_linear" x1="831.379" y1="630.583" x2="1036.31" y2="183.178" gradientUnits="userSpaceOnUse"><stop stop-color="#010101" stop-opacity=".01"/><stop offset=".36" stop-color="#010101" stop-opacity=".36"/><stop offset=".95" stop-color="#010101"/></linearGradient><linearGradient id="paint4_linear" x1="682.726" y1="525.564" x2="799.886" y2="283.969" gradientUnits="userSpaceOnUse"><stop stop-color="#fff" stop-opacity=".01"/><stop offset=".07" stop-color="#fff" stop-opacity=".22"/><stop offset=".16" stop-color="#fff" stop-opacity=".45"/><stop offset=".25" stop-color="#fff" stop-opacity=".65"/><stop offset=".33" stop-color="#fff" stop-opacity=".8"/><stop offset=".4" stop-color="#fff" stop-opacity=".91"/><stop offset=".46" stop-color="#fff" stop-opacity=".98"/><stop offset=".51" stop-color="#fff"/></linearGradient><linearGradient id="paint5_linear" x1="604.65" y1="472.444" x2="668.846" y2="336.555" gradientUnits="userSpaceOnUse"><stop stop-color="#fff" stop-opacity=".01"/><stop offset=".07" stop-color="#fff" stop-opacity=".22"/><stop offset=".16" stop-color="#fff" stop-opacity=".45"/><stop offset=".25" stop-color="#fff" stop-opacity=".65"/><stop offset=".33" stop-color="#fff" stop-opacity=".8"/><stop offset=".4" stop-color="#fff" stop-opacity=".91"/><stop offset=".46" stop-color="#fff" stop-opacity=".98"/><stop offset=".51" stop-color="#fff"/></linearGradient><linearGradient id="paint6_linear" x1="909.972" y1="935.322" x2="920.393" y2="808.584" gradientUnits="userSpaceOnUse"><stop stop-color="#010101" stop-opacity=".01"/><stop offset=".95" stop-color="#010101"/></linearGradient><linearGradient id="paint7_linear" x1="508.259" y1="472.517" x2="505.544" y2="922.071" gradientUnits="userSpaceOnUse"><stop stop-color="#fff" stop-opacity=".01"/><stop offset=".07" stop-color="#fff" stop-opacity=".22"/><stop offset=".16" stop-color="#fff" stop-opacity=".45"/><stop offset=".25" stop-color="#fff" stop-opacity=".65"/><stop offset=".33" stop-color="#fff" stop-opacity=".8"/><stop offset=".4" stop-color="#fff" stop-opacity=".91"/><stop offset=".46" stop-color="#fff" stop-opacity=".98"/><stop offset=".51" stop-color="#fff"/></linearGradient><linearGradient id="paint8_linear" x1="254.605" y1="910.073" x2="254.705" y2="1052.31" gradientUnits="userSpaceOnUse"><stop stop-color="#010101" stop-opacity=".01"/><stop offset=".95" stop-color="#010101"/></linearGradient><linearGradient id="paint9_linear" x1="1407.02" y1="655.966" x2="1441.2" y2="248.855" gradientUnits="userSpaceOnUse"><stop stop-color="#fff" stop-opacity=".01"/><stop offset=".07" stop-color="#fff" stop-opacity=".22"/><stop offset=".16" stop-color="#fff" stop-opacity=".45"/><stop offset=".25" stop-color="#fff" stop-opacity=".65"/><stop offset=".33" stop-color="#fff" stop-opacity=".8"/><stop offset=".4" stop-color="#fff" stop-opacity=".91"/><stop offset=".46" stop-color="#fff" stop-opacity=".98"/><stop offset=".51" stop-color="#fff"/></linearGradient><linearGradient id="paint10_linear" x1="580.138" y1="545.87" x2="718.145" y2="914.142" gradientUnits="userSpaceOnUse"><stop stop-color="#fff" stop-opacity=".01"/><stop offset=".07" stop-color="#fff" stop-opacity=".22"/><stop offset=".16" stop-color="#fff" stop-opacity=".45"/><stop offset=".25" stop-color="#fff" stop-opacity=".65"/><stop offset=".33" stop-color="#fff" stop-opacity=".8"/><stop offset=".4" stop-color="#fff" stop-opacity=".91"/><stop offset=".46" stop-color="#fff" stop-opacity=".98"/><stop offset=".51" stop-color="#fff"/></linearGradient><linearGradient id="paint11_linear" x1="683.668" y1="568.99" x2="680.343" y2="851.698" gradientUnits="userSpaceOnUse"><stop stop-color="#fff" stop-opacity=".01"/><stop offset=".07" stop-color="#fff" stop-opacity=".22"/><stop offset=".16" stop-color="#fff" stop-opacity=".45"/><stop offset=".25" stop-color="#fff" stop-opacity=".65"/><stop offset=".33" stop-color="#fff" stop-opacity=".8"/><stop offset=".4" stop-color="#fff" stop-opacity=".91"/><stop offset=".46" stop-color="#fff" stop-opacity=".98"/><stop offset=".51" stop-color="#fff"/></linearGradient><linearGradient id="paint12_linear" x1="999.503" y1="760.704" x2="1018.69" y2="182.785" gradientUnits="userSpaceOnUse"><stop stop-color="#010101" stop-opacity=".01"/><stop offset=".95" stop-color="#010101"/></linearGradient><linearGradient id="paint13_linear" x1="998.651" y1="761.045" x2="1017.84" y2="183.125" gradientUnits="userSpaceOnUse"><stop stop-color="#010101" stop-opacity=".01"/><stop offset=".95" stop-color="#010101"/></linearGradient><linearGradient id="paint14_linear" x1="904.472" y1="758.354" x2="923.688" y2="180.435" gradientUnits="userSpaceOnUse"><stop stop-color="#010101" stop-opacity=".01"/><stop offset=".95" stop-color="#010101"/></linearGradient><linearGradient id="paint15_linear" x1="903.62" y1="758.694" x2="922.836" y2="180.776" gradientUnits="userSpaceOnUse"><stop stop-color="#010101" stop-opacity=".01"/><stop offset=".95" stop-color="#010101"/></linearGradient><linearGradient id="paint16_linear" x1="997.712" y1="762.545" x2="1016.93" y2="184.627" gradientUnits="userSpaceOnUse"><stop stop-color="#010101" stop-opacity=".01"/><stop offset=".95" stop-color="#010101"/></linearGradient><linearGradient id="paint17_linear" x1="903.682" y1="760.236" x2="922.869" y2="182.317" gradientUnits="userSpaceOnUse"><stop stop-color="#010101" stop-opacity=".01"/><stop offset=".95" stop-color="#010101"/></linearGradient><linearGradient id="paint18_linear" x1="951.672" y1="761.396" x2="970.888" y2="183.499" gradientUnits="userSpaceOnUse"><stop stop-color="#010101" stop-opacity=".01"/><stop offset=".95" stop-color="#010101"/></linearGradient><linearGradient id="paint19_linear" x1="953.488" y1="758.843" x2="972.704" y2="180.925" gradientUnits="userSpaceOnUse"><stop stop-color="#010101" stop-opacity=".01"/><stop offset=".95" stop-color="#010101"/></linearGradient><linearGradient id="paint20_linear" x1="608.41" y1="773.399" x2="840.643" y2="990.094" gradientUnits="userSpaceOnUse"><stop stop-color="#fff" stop-opacity=".01"/><stop offset=".07" stop-color="#fff" stop-opacity=".22"/><stop offset=".16" stop-color="#fff" stop-opacity=".45"/><stop offset=".25" stop-color="#fff" stop-opacity=".65"/><stop offset=".33" stop-color="#fff" stop-opacity=".8"/><stop offset=".4" stop-color="#fff" stop-opacity=".91"/><stop offset=".46" stop-color="#fff" stop-opacity=".98"/><stop offset=".51" stop-color="#fff"/></linearGradient><linearGradient id="paint21_linear" x1="957.277" y1="553.864" x2="955.492" y2="689.026" gradientUnits="userSpaceOnUse"><stop stop-color="#fff" stop-opacity=".01"/><stop offset=".07" stop-color="#fff" stop-opacity=".22"/><stop offset=".16" stop-color="#fff" stop-opacity=".45"/><stop offset=".25" stop-color="#fff" stop-opacity=".65"/><stop offset=".33" stop-color="#fff" stop-opacity=".8"/><stop offset=".4" stop-color="#fff" stop-opacity=".91"/><stop offset=".46" stop-color="#fff" stop-opacity=".98"/><stop offset=".51" stop-color="#fff"/></linearGradient><linearGradient id="paint22_linear" x1="957.277" y1="663.864" x2="955.492" y2="799.026" gradientUnits="userSpaceOnUse"><stop stop-color="#fff" stop-opacity=".01"/><stop offset=".07" stop-color="#fff" stop-opacity=".22"/><stop offset=".16" stop-color="#fff" stop-opacity=".45"/><stop offset=".25" stop-color="#fff" stop-opacity=".65"/><stop offset=".33" stop-color="#fff" stop-opacity=".8"/><stop offset=".4" stop-color="#fff" stop-opacity=".91"/><stop offset=".46" stop-color="#fff" stop-opacity=".98"/><stop offset=".51" stop-color="#fff"/></linearGradient><linearGradient id="paint23_linear" x1="593.437" y1="589.281" x2="593.42" y2="607.481" gradientUnits="userSpaceOnUse"><stop stop-color="#fff" stop-opacity=".01"/><stop offset=".07" stop-color="#fff" stop-opacity=".22"/><stop offset=".16" stop-color="#fff" stop-opacity=".45"/><stop offset=".25" stop-color="#fff" stop-opacity=".65"/><stop offset=".33" stop-color="#fff" stop-opacity=".8"/><stop offset=".4" stop-color="#fff" stop-opacity=".91"/><stop offset=".46" stop-color="#fff" stop-opacity=".98"/><stop offset=".51" stop-color="#fff"/></linearGradient><linearGradient id="paint24_linear" x1="512.737" y1="642.052" x2="626.168" y2="552.635" gradientUnits="userSpaceOnUse"><stop stop-color="#010101" stop-opacity=".01"/><stop offset=".95" stop-color="#010101"/></linearGradient><linearGradient id="paint25_linear" x1="562.575" y1="661.988" x2="723.852" y2="536.867" gradientUnits="userSpaceOnUse"><stop stop-color="#010101" stop-opacity=".01"/><stop offset=".95" stop-color="#010101"/></linearGradient><linearGradient id="paint26_linear" x1="667.519" y1="720.751" x2="923.684" y2="498.028" gradientUnits="userSpaceOnUse"><stop stop-color="#010101" stop-opacity=".01"/><stop offset=".95" stop-color="#010101"/></linearGradient><linearGradient id="paint27_linear" x1="776.279" y1="789.865" x2="1151.96" y2="471.45" gradientUnits="userSpaceOnUse"><stop stop-color="#010101" stop-opacity=".01"/><stop offset=".36" stop-color="#010101" stop-opacity=".36"/><stop offset=".95" stop-color="#010101"/></linearGradient><linearGradient id="paint28_linear" x1="624.537" y1="552.751" x2="807.477" y2="421.322" gradientUnits="userSpaceOnUse"><stop stop-color="#fff" stop-opacity=".01"/><stop offset=".07" stop-color="#fff" stop-opacity=".22"/><stop offset=".16" stop-color="#fff" stop-opacity=".45"/><stop offset=".25" stop-color="#fff" stop-opacity=".65"/><stop offset=".33" stop-color="#fff" stop-opacity=".8"/><stop offset=".4" stop-color="#fff" stop-opacity=".91"/><stop offset=".46" stop-color="#fff" stop-opacity=".98"/><stop offset=".51" stop-color="#fff"/></linearGradient><linearGradient id="paint29_linear" x1="638.151" y1="550.517" x2="754.009" y2="454.658" gradientUnits="userSpaceOnUse"><stop stop-color="#fff" stop-opacity=".01"/><stop offset=".07" stop-color="#fff" stop-opacity=".22"/><stop offset=".16" stop-color="#fff" stop-opacity=".45"/><stop offset=".25" stop-color="#fff" stop-opacity=".65"/><stop offset=".33" stop-color="#fff" stop-opacity=".8"/><stop offset=".4" stop-color="#fff" stop-opacity=".91"/><stop offset=".46" stop-color="#fff" stop-opacity=".98"/><stop offset=".51" stop-color="#fff"/></linearGradient><linearGradient id="paint30_linear" x1="503.738" y1="716.745" x2="541.923" y2="716.767" gradientUnits="userSpaceOnUse"><stop stop-color="#fff" stop-opacity=".01"/><stop offset=".07" stop-color="#fff" stop-opacity=".22"/><stop offset=".16" stop-color="#fff" stop-opacity=".45"/><stop offset=".25" stop-color="#fff" stop-opacity=".65"/><stop offset=".33" stop-color="#fff" stop-opacity=".8"/><stop offset=".4" stop-color="#fff" stop-opacity=".91"/><stop offset=".46" stop-color="#fff" stop-opacity=".98"/><stop offset=".51" stop-color="#fff"/></linearGradient><linearGradient id="paint31_linear" x1="430.446" y1="619.2" x2="442.097" y2="657.932" gradientUnits="userSpaceOnUse"><stop stop-color="#010101" stop-opacity=".01"/><stop offset=".95" stop-color="#010101"/></linearGradient><linearGradient id="paint32_linear" x1="455.244" y1="767.933" x2="556.146" y2="769.976" gradientUnits="userSpaceOnUse"><stop stop-color="#010101" stop-opacity=".01"/><stop offset=".95" stop-color="#010101"/></linearGradient><linearGradient id="paint33_linear" x1="858.015" y1="925.512" x2="761.922" y2="760.732" gradientUnits="userSpaceOnUse"><stop stop-color="#010101" stop-opacity=".01"/><stop offset=".95" stop-color="#010101"/></linearGradient><linearGradient id="paint34_linear" x1="859.037" y1="463.892" x2="686.151" y2="468.761" gradientUnits="userSpaceOnUse"><stop stop-color="#010101" stop-opacity=".01"/><stop offset=".95" stop-color="#010101"/></linearGradient></defs></svg>